<svg width="60" height="60" viewBox="0 0 60 60" fill="none" xmlns="http://www.w3.org/2000/svg">
<path d="M60 30C60 37.9565 56.8393 45.5871 51.2132 51.2132C45.5871 56.8393 37.9565 60 30 60C22.0435 60 14.4129 56.8393 8.7868 51.2132C3.16071 45.5871 0 37.9565 0 30C0 22.0435 3.16071 14.4129 8.7868 8.7868C14.4129 3.16071 22.0435 0 30 0C37.9565 0 45.5871 3.16071 51.2132 8.7868C56.8393 14.4129 60 22.0435 60 30V30ZM15 30C15 30.4973 15.1975 30.9742 15.5492 31.3258C15.9008 31.6775 16.3777 31.875 16.875 31.875H28.125V43.125C28.125 43.6223 28.3225 44.0992 28.6742 44.4508C29.0258 44.8025 29.5027 45 30 45C30.4973 45 30.9742 44.8025 31.3258 44.4508C31.6775 44.0992 31.875 43.6223 31.875 43.125V31.875H43.125C43.6223 31.875 44.0992 31.6775 44.4508 31.3258C44.8025 30.9742 45 30.4973 45 30C45 29.5027 44.8025 29.0258 44.4508 28.6742C44.0992 28.3225 43.6223 28.125 43.125 28.125H31.875V16.875C31.875 16.3777 31.6775 15.9008 31.3258 15.5492C30.9742 15.1975 30.4973 15 30 15C29.5027 15 29.0258 15.1975 28.6742 15.5492C28.3225 15.9008 28.125 16.3777 28.125 16.875V28.125H16.875C16.3777 28.125 15.9008 28.3225 15.5492 28.6742C15.1975 29.0258 15 29.5027 15 30Z" fill="#28DF99"/>
</svg>
