<svg width="30" height="30" viewBox="0 0 30 30" fill="none" xmlns="http://www.w3.org/2000/svg">
<path d="M21.25 7.5V13.125C20.3723 13.124 19.5043 13.3083 18.7028 13.6659C17.9013 14.0234 17.1843 14.5462 16.5988 15.2C15.5674 16.3458 14.9977 17.8334 15 19.375C15.0004 20.4813 15.2941 21.5677 15.8512 22.5234C16.4083 23.4792 17.2088 24.2701 18.1712 24.8156C16.5075 25.3188 14.2988 25.625 11.875 25.625C6.6975 25.625 2.5 24.2256 2.5 22.5V7.5" stroke="black" stroke-width="2" stroke-linecap="round" stroke-linejoin="round"/>
<path d="M27.5 19.375C27.5 22.8269 24.7019 25.625 21.25 25.625C20.1313 25.625 19.08 25.3313 18.1712 24.8156C17.2088 24.2701 16.4083 23.4792 15.8512 22.5234C15.2941 21.5677 15.0004 20.4813 15 19.375C15 17.77 15.605 16.3062 16.5988 15.2C17.1843 14.5462 17.9013 14.0234 18.7028 13.6659C19.5043 13.3083 20.3723 13.124 21.25 13.125C24.7019 13.125 27.5 15.9231 27.5 19.375ZM21.25 7.5C21.25 9.22562 17.0525 10.625 11.875 10.625C6.6975 10.625 2.5 9.22562 2.5 7.5C2.5 5.77438 6.6975 4.375 11.875 4.375C17.0525 4.375 21.25 5.77438 21.25 7.5Z" fill="#28DF99" stroke="black" stroke-width="2" stroke-linecap="round" stroke-linejoin="round"/>
<path d="M2.5 12.5C2.5 14.2256 6.6975 15.625 11.875 15.625C13.5975 15.625 15.2119 15.47 16.5988 15.2M2.5 17.5C2.5 19.2256 6.6975 20.625 11.875 20.625C13.0044 20.625 14.0875 20.5588 15.09 20.4363L2.5 17.5Z" stroke="black" stroke-width="2" stroke-linecap="round" stroke-linejoin="round"/>
<path d="M23.125 17.5L19.375 21.25" stroke="white" stroke-width="2" stroke-linecap="round" stroke-linejoin="round"/>
</svg>
