<svg width="22" height="19" viewBox="0 0 22 19" fill="none" xmlns="http://www.w3.org/2000/svg">
<path d="M0 9C0 9 4.188 3 11 3C11.947 3 12.84 3.12 13.678 3.322L7.36 9.64C7.12406 9.12538 7.0013 8.56613 7 8C7 7.063 7.335 6.213 7.875 5.53C5.483 6.344 3.66 7.917 2.62 9C3.50686 9.92331 4.50834 10.7292 5.6 11.398L4.15 12.85C1.498 11.13 0 9 0 9ZM22 9C22 9 17.812 15 11 15C10.054 15 9.164 14.876 8.324 14.677L4 19L2.5 17.5L19.5 0.5L21 2L17.853 5.147C20.5 6.87 22 9 22 9ZM19.385 9.006C18.4975 8.07914 17.4934 7.27139 16.398 6.603L15 8C15 10.21 13.21 12 11 12L10.053 12.947C10.363 12.977 10.677 13 11 13C14.978 13 17.943 10.522 19.385 9.006Z" fill="#EF2727"/>
</svg>
