<svg width="141" height="99" viewBox="0 0 141 99" fill="none" xmlns="http://www.w3.org/2000/svg">
<path d="M65.5028 1.6163e-05C63.9633 -0.00304047 62.4629 0.427514 61.2207 1.22885C59.9784 2.03019 59.0593 3.16037 58.5975 4.45446C58.1357 5.74856 58.1553 7.13884 58.6534 8.42243C59.1516 9.70602 60.1023 10.8157 61.3667 11.5896V16.692C57.6442 17.1658 54.1699 18.2227 51.0265 19.8263L46.4354 14.0315C47.2212 12.1363 47.0144 9.9496 45.6082 8.20022C44.1605 6.4144 41.927 5.46682 39.6522 5.46682C38.2045 5.46682 36.7569 5.83127 35.5161 6.63307C32.2485 8.63757 31.4213 12.6101 33.7375 15.4893C35.1438 17.2751 37.3773 18.2227 39.6522 18.2227L44.5328 24.3455C42.7543 25.9127 41.348 27.662 40.1485 29.5937C39.3213 29.3021 38.4527 29.1563 37.5841 29.1563C35.7229 29.1563 33.8616 29.7759 32.414 30.9786C29.6428 33.5298 29.6428 37.5387 32.414 40.0899C33.6135 41.0739 35.0611 41.6206 36.5501 41.9122C36.5501 43.8802 36.8396 45.7754 37.2946 47.5977L31.8763 48.8732C30.5941 47.9257 28.9397 47.379 27.2439 47.379C26.6234 47.379 25.9617 47.379 25.3413 47.5977C23.4877 48.0427 21.9106 49.1182 20.9566 50.5875C20.0026 52.0569 19.7498 53.7999 20.2538 55.4334C21.1224 58.3126 24.1418 60.1349 27.2439 60.1349C27.8643 60.1349 28.4847 60.1349 29.1465 59.9162C31.504 59.3331 33.2826 57.8024 34.0271 55.9072L40.2726 54.4129C42.1338 57.2921 44.6155 59.8433 47.5108 61.9571L42.9611 69.2462C40.6862 69.5378 38.6181 70.6676 37.4187 72.5992C36.9679 73.3362 36.6862 74.1443 36.5898 74.9773C36.4934 75.8102 36.5841 76.6518 36.8568 77.4539C37.1295 78.2559 37.5788 79.0028 38.1791 79.6519C38.7794 80.301 39.5188 80.8395 40.3553 81.2367C41.1918 81.634 42.1089 81.8822 43.0542 81.9671C43.9995 82.052 44.9545 81.9721 45.8648 81.7318C46.775 81.4915 47.6227 81.0956 48.3593 80.5667C49.0959 80.0378 49.7071 79.3862 50.1579 78.6491C51.316 76.754 51.2746 74.5672 50.2406 72.7814L54.6662 65.6017C58.0165 66.7679 61.6562 67.4239 65.5028 67.4239H66.2473C65.7096 68.3715 65.5028 69.4649 65.5028 70.6311C65.8337 73.9841 68.9772 76.5353 72.741 76.5353H73.2787C77.2907 76.2437 80.2687 73.1823 79.9792 69.6835C79.8137 67.8613 78.7797 66.2577 77.2907 65.2008C79.2347 64.4354 81.0959 63.4514 82.8331 62.3216L92.5116 70.8498C92.098 72.8907 92.7597 74.9681 94.4556 76.5353C95.9032 77.738 97.7644 78.3575 99.6257 78.3575C101.487 78.3575 103.348 77.738 104.796 76.5353C107.567 73.9841 107.567 69.9751 104.796 67.4239C103.348 66.2212 101.487 65.6017 99.6257 65.6017C99.2121 65.6017 98.7985 65.6017 98.3435 65.711L88.665 57.1828C90.6917 54.8138 92.2634 52.1169 93.2561 49.2013H97.8472C98.7254 50.3154 99.9848 51.1531 101.442 51.5921C102.898 52.031 104.476 52.0483 105.945 51.6413C107.413 51.2344 108.696 50.4245 109.605 49.3299C110.515 48.2353 111.003 46.9133 111 45.5567C111.003 44.2002 110.515 42.8781 109.605 41.7835C108.696 40.6889 107.413 39.879 105.945 39.4721C104.476 39.0651 102.898 39.0824 101.442 39.5214C99.9848 39.9603 98.7254 40.798 97.8472 41.9122H94.4556C94.4556 36.1903 92.3875 30.9786 88.665 26.6416L94.2074 21.7579C94.6624 21.8672 95.076 21.8672 95.4896 21.8672C97.3508 21.8672 99.2121 21.2477 100.66 20.045C103.431 17.5302 103.431 13.4848 100.66 10.9336C99.2121 9.73093 97.3508 9.11136 95.4896 9.11136C93.6283 9.11136 91.7671 9.73093 90.3195 10.9336C88.6236 12.5008 87.9619 14.5782 88.3755 16.6191L82.8331 21.5028C79.0279 18.988 74.5609 17.3116 69.6389 16.692V11.5896C70.9034 10.8157 71.854 9.70602 72.3522 8.42243C72.8504 7.13884 72.87 5.74856 72.4081 4.45446C71.9463 3.16037 71.0272 2.03019 69.785 1.22885C68.5427 0.427514 67.0424 -0.00304047 65.5028 1.6163e-05ZM65.5028 60.1349C54.0872 60.1349 44.8223 51.9711 44.8223 41.9122C44.8223 31.8533 54.0872 23.6895 65.5028 23.6895C76.9185 23.6895 86.1833 31.8533 86.1833 41.9122C86.1833 51.9711 76.9185 60.1349 65.5028 60.1349ZM59.2987 30.9786C55.8657 30.9786 53.0945 33.4204 53.0945 36.4454C53.0945 39.4703 55.8657 41.9122 59.2987 41.9122C62.7316 41.9122 65.5028 39.4703 65.5028 36.4454C65.5028 33.4204 62.7316 30.9786 59.2987 30.9786ZM73.775 45.5567C71.5002 45.5567 69.6389 47.1968 69.6389 49.2013C69.6389 51.2058 71.5002 52.8458 73.775 52.8458C76.0499 52.8458 77.9111 51.2058 77.9111 49.2013C77.9111 47.1968 76.0499 45.5567 73.775 45.5567Z" fill="white"/>
<path d="M3.43359 92.5781L2.51953 93.5625V96H0.761719V87.4688H2.51953V91.3359L3.29297 90.2754L5.4668 87.4688H7.62891L4.59961 91.2598L7.7168 96H5.625L3.43359 92.5781ZM11.9414 96C11.8633 95.8477 11.8066 95.6582 11.7715 95.4316C11.3613 95.8887 10.8281 96.1172 10.1719 96.1172C9.55078 96.1172 9.03516 95.9375 8.625 95.5781C8.21875 95.2188 8.01562 94.7656 8.01562 94.2188C8.01562 93.5469 8.26367 93.0312 8.75977 92.6719C9.25977 92.3125 9.98047 92.1309 10.9219 92.127H11.7012V91.7637C11.7012 91.4707 11.625 91.2363 11.4727 91.0605C11.3242 90.8848 11.0879 90.7969 10.7637 90.7969C10.4785 90.7969 10.2539 90.8652 10.0898 91.002C9.92969 91.1387 9.84961 91.3262 9.84961 91.5645H8.15625C8.15625 91.1973 8.26953 90.8574 8.49609 90.5449C8.72266 90.2324 9.04297 89.9883 9.45703 89.8125C9.87109 89.6328 10.3359 89.543 10.8516 89.543C11.6328 89.543 12.252 89.7402 12.709 90.1348C13.1699 90.5254 13.4004 91.0762 13.4004 91.7871V94.5352C13.4043 95.1367 13.4883 95.5918 13.6523 95.9004V96H11.9414ZM10.541 94.8223C10.791 94.8223 11.0215 94.7676 11.2324 94.6582C11.4434 94.5449 11.5996 94.3945 11.7012 94.207V93.1172H11.0684C10.2207 93.1172 9.76953 93.4102 9.71484 93.9961L9.70898 94.0957C9.70898 94.3066 9.7832 94.4805 9.93164 94.6172C10.0801 94.7539 10.2832 94.8223 10.541 94.8223ZM20.4141 92.8887C20.4141 93.9043 20.1973 94.6973 19.7637 95.2676C19.3301 95.834 18.7246 96.1172 17.9473 96.1172C17.2598 96.1172 16.7109 95.8535 16.3008 95.3262L16.2246 96H14.7012V87H16.3945V90.2285C16.7852 89.7715 17.2988 89.543 17.9355 89.543C18.709 89.543 19.3145 89.8281 19.752 90.3984C20.1934 90.9648 20.4141 91.7637 20.4141 92.7949V92.8887ZM18.7207 92.7656C18.7207 92.125 18.6191 91.6582 18.416 91.3652C18.2129 91.0684 17.9102 90.9199 17.5078 90.9199C16.9688 90.9199 16.5977 91.1406 16.3945 91.582V94.084C16.6016 94.5293 16.9766 94.752 17.5195 94.752C18.0664 94.752 18.4258 94.4824 18.5977 93.9434C18.6797 93.6855 18.7207 93.293 18.7207 92.7656ZM25.1367 96C25.0586 95.8477 25.002 95.6582 24.9668 95.4316C24.5566 95.8887 24.0234 96.1172 23.3672 96.1172C22.7461 96.1172 22.2305 95.9375 21.8203 95.5781C21.4141 95.2188 21.2109 94.7656 21.2109 94.2188C21.2109 93.5469 21.459 93.0312 21.9551 92.6719C22.4551 92.3125 23.1758 92.1309 24.1172 92.127H24.8965V91.7637C24.8965 91.4707 24.8203 91.2363 24.668 91.0605C24.5195 90.8848 24.2832 90.7969 23.959 90.7969C23.6738 90.7969 23.4492 90.8652 23.2852 91.002C23.125 91.1387 23.0449 91.3262 23.0449 91.5645H21.3516C21.3516 91.1973 21.4648 90.8574 21.6914 90.5449C21.918 90.2324 22.2383 89.9883 22.6523 89.8125C23.0664 89.6328 23.5312 89.543 24.0469 89.543C24.8281 89.543 25.4473 89.7402 25.9043 90.1348C26.3652 90.5254 26.5957 91.0762 26.5957 91.7871V94.5352C26.5996 95.1367 26.6836 95.5918 26.8477 95.9004V96H25.1367ZM23.7363 94.8223C23.9863 94.8223 24.2168 94.7676 24.4277 94.6582C24.6387 94.5449 24.7949 94.3945 24.8965 94.207V93.1172H24.2637C23.416 93.1172 22.9648 93.4102 22.9102 93.9961L22.9043 94.0957C22.9043 94.3066 22.9785 94.4805 23.127 94.6172C23.2754 94.7539 23.4785 94.8223 23.7363 94.8223ZM31.459 91.248C31.2285 91.2168 31.0254 91.2012 30.8496 91.2012C30.209 91.2012 29.7891 91.418 29.5898 91.8516V96H27.8965V89.6602H29.4961L29.543 90.416C29.8828 89.834 30.3535 89.543 30.9551 89.543C31.1426 89.543 31.3184 89.5684 31.4824 89.6191L31.459 91.248ZM42.0762 93.1582C42.0098 94.0762 41.6699 94.7988 41.0566 95.3262C40.4473 95.8535 39.6426 96.1172 38.6426 96.1172C37.5488 96.1172 36.6875 95.75 36.0586 95.0156C35.4336 94.2773 35.1211 93.2656 35.1211 91.9805V91.459C35.1211 90.6387 35.2656 89.916 35.5547 89.291C35.8438 88.666 36.2559 88.1875 36.791 87.8555C37.3301 87.5195 37.9551 87.3516 38.666 87.3516C39.6504 87.3516 40.4434 87.6152 41.0449 88.1426C41.6465 88.6699 41.9941 89.4102 42.0879 90.3633H40.3301C40.2871 89.8125 40.1328 89.4141 39.8672 89.168C39.6055 88.918 39.2051 88.793 38.666 88.793C38.0801 88.793 37.6406 89.0039 37.3477 89.4258C37.0586 89.8438 36.9102 90.4941 36.9023 91.377V92.0215C36.9023 92.9434 37.041 93.6172 37.3184 94.043C37.5996 94.4688 38.041 94.6816 38.6426 94.6816C39.1855 94.6816 39.5898 94.5586 39.8555 94.3125C40.125 94.0625 40.2793 93.6777 40.3184 93.1582H42.0762ZM42.8555 92.7715C42.8555 92.1426 42.9766 91.582 43.2188 91.0898C43.4609 90.5977 43.8086 90.2168 44.2617 89.9473C44.7188 89.6777 45.248 89.543 45.8496 89.543C46.7051 89.543 47.4023 89.8047 47.9414 90.3281C48.4844 90.8516 48.7871 91.5625 48.8496 92.4609L48.8613 92.8945C48.8613 93.8672 48.5898 94.6484 48.0469 95.2383C47.5039 95.8242 46.7754 96.1172 45.8613 96.1172C44.9473 96.1172 44.2168 95.8242 43.6699 95.2383C43.127 94.6523 42.8555 93.8555 42.8555 92.8477V92.7715ZM44.5488 92.8945C44.5488 93.4961 44.6621 93.957 44.8887 94.2773C45.1152 94.5938 45.4395 94.752 45.8613 94.752C46.2715 94.752 46.5918 94.5957 46.8223 94.2832C47.0527 93.9668 47.168 93.4629 47.168 92.7715C47.168 92.1816 47.0527 91.7246 46.8223 91.4004C46.5918 91.0762 46.2676 90.9141 45.8496 90.9141C45.4355 90.9141 45.1152 91.0762 44.8887 91.4004C44.6621 91.7207 44.5488 92.2188 44.5488 92.8945ZM52.1836 93.9316L53.3613 89.6602H55.1309L52.9922 96H51.375L49.2363 89.6602H51.0059L52.1836 93.9316ZM57.668 96H55.9688V89.6602H57.668V96ZM55.8691 88.0195C55.8691 87.7656 55.9531 87.5566 56.1211 87.3926C56.293 87.2285 56.5254 87.1465 56.8184 87.1465C57.1074 87.1465 57.3379 87.2285 57.5098 87.3926C57.6816 87.5566 57.7676 87.7656 57.7676 88.0195C57.7676 88.2773 57.6797 88.4883 57.5039 88.6523C57.332 88.8164 57.1035 88.8984 56.8184 88.8984C56.5332 88.8984 56.3027 88.8164 56.127 88.6523C55.9551 88.4883 55.8691 88.2773 55.8691 88.0195ZM58.8047 92.7832C58.8047 91.7949 59.0254 91.0078 59.4668 90.4219C59.9121 89.8359 60.5195 89.543 61.2891 89.543C61.9062 89.543 62.416 89.7734 62.8184 90.2344V87H64.5176V96H62.9883L62.9062 95.3262C62.4844 95.8535 61.9414 96.1172 61.2773 96.1172C60.5312 96.1172 59.9316 95.8242 59.4785 95.2383C59.0293 94.6484 58.8047 93.8301 58.8047 92.7832ZM60.498 92.9062C60.498 93.5 60.6016 93.9551 60.8086 94.2715C61.0156 94.5879 61.3164 94.7461 61.7109 94.7461C62.2344 94.7461 62.6035 94.5254 62.8184 94.084V91.582C62.6074 91.1406 62.2422 90.9199 61.7227 90.9199C60.9062 90.9199 60.498 91.582 60.498 92.9062ZM73.3535 93.7617C73.3535 93.4297 73.2363 93.1758 73.002 93C72.7676 92.8203 72.3457 92.6328 71.7363 92.4375C71.127 92.2383 70.6445 92.043 70.2891 91.8516C69.3203 91.3281 68.8359 90.623 68.8359 89.7363C68.8359 89.2754 68.9648 88.8652 69.2227 88.5059C69.4844 88.1426 69.8574 87.8594 70.3418 87.6562C70.8301 87.4531 71.377 87.3516 71.9824 87.3516C72.5918 87.3516 73.1348 87.4629 73.6113 87.6855C74.0879 87.9043 74.457 88.2148 74.7188 88.6172C74.9844 89.0195 75.1172 89.4766 75.1172 89.9883H73.3594C73.3594 89.5977 73.2363 89.2949 72.9902 89.0801C72.7441 88.8613 72.3984 88.752 71.9531 88.752C71.5234 88.752 71.1895 88.8438 70.9512 89.0273C70.7129 89.207 70.5938 89.4453 70.5938 89.7422C70.5938 90.0195 70.7324 90.252 71.0098 90.4395C71.291 90.627 71.7031 90.8027 72.2461 90.9668C73.2461 91.2676 73.9746 91.6406 74.4316 92.0859C74.8887 92.5312 75.1172 93.0859 75.1172 93.75C75.1172 94.4883 74.8379 95.0684 74.2793 95.4902C73.7207 95.9082 72.9688 96.1172 72.0234 96.1172C71.3672 96.1172 70.7695 95.998 70.2305 95.7598C69.6914 95.5176 69.2793 95.1875 68.9941 94.7695C68.7129 94.3516 68.5723 93.8672 68.5723 93.3164H70.3359C70.3359 94.2578 70.8984 94.7285 72.0234 94.7285C72.4414 94.7285 72.7676 94.6445 73.002 94.4766C73.2363 94.3047 73.3535 94.0664 73.3535 93.7617ZM79.998 95.3555C79.5801 95.8633 79.002 96.1172 78.2637 96.1172C77.584 96.1172 77.0645 95.9219 76.7051 95.5312C76.3496 95.1406 76.168 94.5684 76.1602 93.8145V89.6602H77.8535V93.7559C77.8535 94.416 78.1543 94.7461 78.7559 94.7461C79.3301 94.7461 79.7246 94.5469 79.9395 94.1484V89.6602H81.6387V96H80.0449L79.998 95.3555ZM84.5039 89.6602L84.5566 90.3691C85.0059 89.8184 85.6133 89.543 86.3789 89.543C87.1953 89.543 87.7559 89.8652 88.0605 90.5098C88.5059 89.8652 89.1406 89.543 89.9648 89.543C90.6523 89.543 91.1641 89.7441 91.5 90.1465C91.8359 90.5449 92.0039 91.1465 92.0039 91.9512V96H90.3047V91.957C90.3047 91.5977 90.2344 91.3359 90.0938 91.1719C89.9531 91.0039 89.7051 90.9199 89.3496 90.9199C88.8418 90.9199 88.4902 91.1621 88.2949 91.6465L88.3008 96H86.6074V91.9629C86.6074 91.5957 86.5352 91.3301 86.3906 91.166C86.2461 91.002 86 90.9199 85.6523 90.9199C85.1719 90.9199 84.8242 91.1191 84.6094 91.5176V96H82.916V89.6602H84.5039ZM99.0234 92.8887C99.0234 93.9043 98.8066 94.6973 98.373 95.2676C97.9395 95.834 97.334 96.1172 96.5566 96.1172C95.8691 96.1172 95.3203 95.8535 94.9102 95.3262L94.834 96H93.3105V87H95.0039V90.2285C95.3945 89.7715 95.9082 89.543 96.5449 89.543C97.3184 89.543 97.9238 89.8281 98.3613 90.3984C98.8027 90.9648 99.0234 91.7637 99.0234 92.7949V92.8887ZM97.3301 92.7656C97.3301 92.125 97.2285 91.6582 97.0254 91.3652C96.8223 91.0684 96.5195 90.9199 96.1172 90.9199C95.5781 90.9199 95.207 91.1406 95.0039 91.582V94.084C95.2109 94.5293 95.5859 94.752 96.1289 94.752C96.6758 94.752 97.0352 94.4824 97.207 93.9434C97.2891 93.6855 97.3301 93.293 97.3301 92.7656ZM103.746 96C103.668 95.8477 103.611 95.6582 103.576 95.4316C103.166 95.8887 102.633 96.1172 101.977 96.1172C101.355 96.1172 100.84 95.9375 100.43 95.5781C100.023 95.2188 99.8203 94.7656 99.8203 94.2188C99.8203 93.5469 100.068 93.0312 100.564 92.6719C101.064 92.3125 101.785 92.1309 102.727 92.127H103.506V91.7637C103.506 91.4707 103.43 91.2363 103.277 91.0605C103.129 90.8848 102.893 90.7969 102.568 90.7969C102.283 90.7969 102.059 90.8652 101.895 91.002C101.734 91.1387 101.654 91.3262 101.654 91.5645H99.9609C99.9609 91.1973 100.074 90.8574 100.301 90.5449C100.527 90.2324 100.848 89.9883 101.262 89.8125C101.676 89.6328 102.141 89.543 102.656 89.543C103.438 89.543 104.057 89.7402 104.514 90.1348C104.975 90.5254 105.205 91.0762 105.205 91.7871V94.5352C105.209 95.1367 105.293 95.5918 105.457 95.9004V96H103.746ZM102.346 94.8223C102.596 94.8223 102.826 94.7676 103.037 94.6582C103.248 94.5449 103.404 94.3945 103.506 94.207V93.1172H102.873C102.025 93.1172 101.574 93.4102 101.52 93.9961L101.514 94.0957C101.514 94.3066 101.588 94.4805 101.736 94.6172C101.885 94.7539 102.088 94.8223 102.346 94.8223ZM115.676 88.8926H113.062V96H111.305V88.8926H108.727V87.4688H115.676V88.8926ZM118.359 96H116.66V89.6602H118.359V96ZM116.561 88.0195C116.561 87.7656 116.645 87.5566 116.812 87.3926C116.984 87.2285 117.217 87.1465 117.51 87.1465C117.799 87.1465 118.029 87.2285 118.201 87.3926C118.373 87.5566 118.459 87.7656 118.459 88.0195C118.459 88.2773 118.371 88.4883 118.195 88.6523C118.023 88.8164 117.795 88.8984 117.51 88.8984C117.225 88.8984 116.994 88.8164 116.818 88.6523C116.646 88.4883 116.561 88.2773 116.561 88.0195ZM121.348 89.6602L121.4 90.3691C121.85 89.8184 122.457 89.543 123.223 89.543C124.039 89.543 124.6 89.8652 124.904 90.5098C125.35 89.8652 125.984 89.543 126.809 89.543C127.496 89.543 128.008 89.7441 128.344 90.1465C128.68 90.5449 128.848 91.1465 128.848 91.9512V96H127.148V91.957C127.148 91.5977 127.078 91.3359 126.938 91.1719C126.797 91.0039 126.549 90.9199 126.193 90.9199C125.686 90.9199 125.334 91.1621 125.139 91.6465L125.145 96H123.451V91.9629C123.451 91.5957 123.379 91.3301 123.234 91.166C123.09 91.002 122.844 90.9199 122.496 90.9199C122.016 90.9199 121.668 91.1191 121.453 91.5176V96H119.76V89.6602H121.348ZM133.951 95.3555C133.533 95.8633 132.955 96.1172 132.217 96.1172C131.537 96.1172 131.018 95.9219 130.658 95.5312C130.303 95.1406 130.121 94.5684 130.113 93.8145V89.6602H131.807V93.7559C131.807 94.416 132.107 94.7461 132.709 94.7461C133.283 94.7461 133.678 94.5469 133.893 94.1484V89.6602H135.592V96H133.998L133.951 95.3555ZM140.432 91.248C140.201 91.2168 139.998 91.2012 139.822 91.2012C139.182 91.2012 138.762 91.418 138.562 91.8516V96H136.869V89.6602H138.469L138.516 90.416C138.855 89.834 139.326 89.543 139.928 89.543C140.115 89.543 140.291 89.5684 140.455 89.6191L140.432 91.248Z" fill="black"/>
</svg>
